 <svg version="1.0" xmlns="http://www.w3.org/2000/svg" width="700.000000pt" height="700.000000pt" viewBox="0 0 700.000000 700.000000" preserveAspectRatio="xMidYMid meet">
<metadata>
Created by potrace 1.12, written by Peter Selinger 2001-2015
</metadata>
<g transform="translate(0.000000,700.000000) scale(0.100000,-0.100000)" fill="#000000" stroke="none">
<path d="M0 3500 l0 -3500 3500 0 3500 0 0 3500 0 3500 -3500 0 -3500 0 0
-3500z m2388 2718 c17 -17 17 -649 0 -666 -9 -9 -134 -12 -503 -12 -489 0
-491 0 -535 -22 -30 -15 -53 -37 -67 -63 -23 -40 -23 -41 -23 -542 0 -277 -3
-503 -7 -503 -280 -4 -668 1 -676 9 -5 5 -7 206 -4 533 6 599 9 621 88 783 39
80 45 88 112 172 63 79 175 170 272 220 76 39 206 83 248 83 17 0 39 5 47 10
23 15 1033 13 1048 -2z m3327 2 c3 -5 22 -10 40 -10 37 0 151 -35 225 -70 163
-76 327 -239 404 -405 10 -22 22 -48 27 -57 10 -20 27 -83 40 -153 9 -48 15
-1103 6 -1111 -5 -6 -668 -6 -673 -1 -3 2 -5 234 -7 515 l-2 511 -35 36 c-19
21 -46 42 -60 48 -17 8 -178 14 -525 17 l-500 5 -5 325 c-3 179 -1 333 3 343
7 16 42 17 532 17 338 0 526 -4 530 -10z m-1816 -1336 c3 -3 8 -26 12 -52 4
-26 14 -94 23 -152 21 -135 42 -276 62 -419 15 -110 15 -116 -2 -128 -10 -7
-24 -11 -30 -9 -7 3 -40 -2 -75 -10 -51 -12 -65 -12 -75 -2 -12 13 -54 92
-214 403 -51 99 -110 213 -132 253 -22 40 -38 79 -35 86 10 26 439 54 466 30z
m391 -28 c34 -15 31 7 81 -614 6 -74 8 -136 5 -140 -9 -8 -176 16 -191 28 -7
5 -17 52 -24 103 -6 50 -16 115 -21 142 -5 28 -12 70 -15 95 -13 98 -27 189
-42 281 -9 53 -13 104 -10 113 5 14 20 15 99 10 51 -4 104 -12 118 -18z m-938
-216 c49 -96 114 -220 143 -275 29 -55 74 -142 100 -192 25 -51 51 -95 56 -98
20 -13 6 -34 -57 -84 -58 -47 -67 -51 -84 -39 -25 18 -288 201 -614 428 -92
63 -166 121 -166 128 0 19 86 95 179 160 111 78 280 154 329 149 20 -2 39 -31
114 -177z m1264 155 l30 -12 12 -124 c6 -68 14 -194 17 -279 3 -85 11 -199 17
-253 13 -123 9 -128 -68 -102 -31 11 -62 25 -69 31 -7 7 -15 56 -19 111 -6 98
-15 198 -40 477 -8 83 -12 156 -9 163 6 16 77 9 129 -12z m-1856 -519 c195
-136 311 -217 425 -295 218 -151 255 -180 255 -204 0 -13 -4 -27 -9 -33 -23
-25 -41 -149 -41 -276 0 -141 15 -223 59 -325 33 -75 128 -162 227 -208 100
-46 148 -55 303 -55 179 0 368 32 537 88 51 17 93 27 98 22 8 -8 -7 -127 -34
-275 -6 -27 -24 -138 -40 -245 -39 -248 -45 -269 -73 -275 -12 -2 -51 -11 -87
-19 -369 -81 -856 -93 -1135 -26 -85 21 -255 90 -324 132 -187 115 -350 287
-423 448 -111 244 -148 423 -148 719 0 327 67 595 212 849 23 39 46 72 52 72
6 0 72 -42 146 -94z m1461 -475 c77 -29 170 -115 205 -189 23 -46 28 -71 28
-132 0 -64 -5 -85 -32 -142 -72 -150 -247 -239 -410 -209 -135 25 -237 97
-290 204 -28 56 -32 75 -32 143 0 62 5 90 24 131 46 97 134 172 245 208 64 21
190 14 262 -14z m-2963 -1696 l2 -496 25 -39 c50 -79 18 -75 584 -78 345 -2
509 -6 518 -14 10 -8 13 -79 13 -333 0 -178 -3 -330 -6 -339 -6 -14 -61 -16
-528 -16 -293 1 -540 5 -563 10 -132 30 -132 30 -238 82 -133 66 -213 131
-301 248 -100 132 -139 215 -171 360 -18 81 -32 1083 -15 1103 8 9 91 11 344
10 l333 -2 3 -496z m5199 492 c12 -7 6 -1019 -6 -1093 -15 -92 -47 -194 -69
-216 -7 -7 -12 -18 -12 -25 0 -29 -94 -154 -173 -230 -95 -91 -230 -183 -270
-183 -5 0 -23 -6 -40 -14 -18 -8 -45 -17 -62 -21 -16 -3 -50 -10 -76 -16 -26
-5 -260 -8 -570 -7 l-524 3 0 345 0 345 510 5 c385 4 515 8 532 18 12 7 35 29
50 49 l28 36 3 501 c1 275 7 503 11 506 11 6 657 3 668 -3z"></path>
<path d="M4011 3524 c-40 -33 -41 -71 -3 -107 21 -20 38 -27 69 -27 53 0 103
39 103 80 0 40 -50 80 -100 80 -27 0 -48 -8 -69 -26z"></path>
</g>
</svg>